<svg aria-hidden="true" style="position:absolute;width:0;height:0" xmlns="http://www.w3.org/2000/svg" overflow="hidden">
<defs>
<symbol id="facebook" viewBox="0 0 33 32"><path fill="var(--color1, #fff)" d="M20.916 15.981h-2.61V25.6h-3.955v-9.62h-1.88V12.6h1.88v-2.187c0-1.565.74-4.014 3.99-4.014l2.93.012v3.281h-2.126c-.348 0-.839.176-.839.922v1.99h2.956l-.346 3.376z"/></symbol>
<symbol id="github" viewBox="0 0 32 32"><path fill="var(--color1, #fff)" d="M16 6.588c-5.17 0-9.412 4.243-9.412 9.412 0 4.412 3.096 8.419 7.206 9.412v-3.114c-.407.09-.782.092-1.197-.03-.556-.165-1.008-.535-1.343-1.1-.214-.36-.593-.752-.988-.723l-.097-1.099c.855-.073 1.594.521 2.033 1.259.195.328.42.52.708.605.278.082.577.043.926-.08.087-.698.407-.96.648-1.327-2.451-.366-3.428-1.666-3.816-2.693-.514-1.363-.238-3.066.67-4.142.018-.02.05-.076.038-.114-.417-1.259.09-2.3.11-2.41.48.142.558-.143 2.088.786l.264.159c.11.066.076.028.187.02a7.777 7.777 0 011.969-.278H16a7.986 7.986 0 012.058.299l-.056-.014.086.009c-.008-.002.023-.006.075-.037 1.91-1.157 1.842-.779 2.354-.945.019.11.52 1.168.108 2.41-.056.172 1.656 1.74.707 4.257-.388 1.027-1.365 2.327-3.816 2.693.314.48.692.734.69 1.722v3.887c4.11-.993 7.206-5 7.206-9.412 0-5.17-4.242-9.412-9.412-9.412z"/></symbol>
<symbol id="menu-close" viewBox="0 0 32 32"><path fill="none" stroke="var(--color1, #fff)" stroke-width="2" d="M2.519 2l26.963 28M2 29.481L30 2.518"/></symbol>
<symbol id="menu-open" viewBox="0 0 32 32"><path fill="none" stroke="var(--color2, #d41443)" stroke-width="1.6" d="M0 6.4h32M0 16h32M0 25.6h32"/></symbol>
<symbol id="telegram" viewBox="0 0 33 32"><path fill="var(--color1, #fff)" d="M13.102 18.375l-.317 4.17c.454 0 .651-.183.887-.401l2.13-1.9 4.415 3.017c.81.42 1.38.199 1.599-.695l2.897-12.673h.001c.257-1.118-.433-1.554-1.222-1.28L6.46 14.699c-1.162.42-1.145 1.026-.198 1.3l4.355 1.264 10.114-5.907c.476-.294.91-.131.553.163l-8.181 6.856z"/></symbol>
<symbol id="home" viewBox="0 0 32 32"><path fill="var(--color3, #d31342)" d="M31.618 15.643c.553-.608.5-1.541-.119-2.082L17.863 1.63c-.619-.541-1.611-.53-2.217.026L1.964 14.198a1.446 1.446 0 00-.066 2.079l.343.357c.569.592 1.489.663 2.053.157l1.023-.916v13.406c0 .823.666 1.488 1.488 1.488h5.333c.822 0 1.488-.666 1.488-1.488v-9.379h6.803v9.379c-.012.822.576 1.488 1.398 1.488h5.652c.822 0 1.488-.666 1.488-1.488V16.064l.631.554c.349.307 1.078.061 1.631-.548l.388-.426z"/></symbol>
<symbol id="arrow" viewBox="0 0 32 32"><path fill="none" stroke-linejoin="round" stroke-linecap="round" stroke-width="6.4" d="M9.6 3.2L22.4 16 9.6 28.8"/></symbol>
<symbol id="quotes" viewBox="0 0 43 32"><path fill="var(--color1, #e1e1e1)" d="M32.014 0c1.928 0 3.75.52 5.464 1.561s3.107 2.537 4.178 4.488c1.029 1.951 1.543 4.25 1.543 6.894s-.643 5.225-1.928 7.74c-.429.91-1.2 2.081-2.315 3.512a63.65 63.65 0 01-3.214 3.707L31.692 32l-2.893-4.813a22.225 22.225 0 005.306-4.646l.03-.037c1.542-1.821 2.314-3.49 2.314-5.008 0-.781-.171-1.41-.514-1.886a8.361 8.361 0 01-5.014 1.626c-1.328 0-2.593-.412-3.793-1.236a8.638 8.638 0 01-2.935-3.078l-.022-.043c-.771-1.258-1.157-2.558-1.157-3.902 0-1.518.45-2.97 1.35-4.358a10.313 10.313 0 013.364-3.356l.044-.025C29.142.414 30.556.002 32.014.002zM8.936 0c1.928 0 3.75.52 5.464 1.561s3.107 2.536 4.178 4.488c1.029 1.951 1.543 4.25 1.543 6.894 0 1.864-.236 3.534-.707 5.008-.472 1.518-1.286 3.1-2.443 4.748-1.114 1.561-2.164 2.862-3.15 3.902-.986 1.084-2.7 2.883-5.143 5.398l-2.893-4.813a22.225 22.225 0 005.306-4.646l.03-.037c1.542-1.821 2.314-3.49 2.314-5.008 0-.781-.172-1.41-.514-1.886a8.361 8.361 0 01-5.014 1.626c-1.328 0-2.593-.412-3.793-1.236a8.638 8.638 0 01-2.935-3.078l-.022-.043C.386 11.62 0 10.32 0 8.976c0-1.518.429-2.97 1.286-4.358A10.313 10.313 0 014.65 1.262l.045-.025C6.065.413 7.479.001 8.937.001z"/></symbol>
</defs>
</svg>
